<svg width="27" height="26" viewBox="0 0 27 26" fill="none" xmlns="http://www.w3.org/2000/svg">
<path fill-rule="evenodd" clip-rule="evenodd" d="M13.6298 6.95103C10.2988 6.95478 7.29448 9.15293 5.71488 12.5322C5.58914 12.8011 5.58914 13.1114 5.71488 13.3804C7.29436 16.7596 10.2988 18.9577 13.6298 18.9615H13.6317C16.9608 18.9553 19.9628 16.7577 21.5411 13.3804C21.6668 13.1114 21.6668 12.8011 21.5411 12.5322C19.9629 9.15485 16.9608 6.95744 13.6317 6.95103H13.6298ZM13.628 8.95275C15.8273 8.95275 17.6314 10.7569 17.6314 12.9562C17.6314 15.1555 15.8273 16.9596 13.628 16.9596C11.4286 16.9596 9.62453 15.1555 9.62453 12.9562C9.62453 10.7569 11.4286 8.95275 13.628 8.95275ZM13.628 10.9545C13.0637 10.9582 13.6261 11.3398 13.628 11.9553C13.6299 12.5709 13.2308 12.9562 12.6271 12.9562C12.0235 12.9562 11.6125 12.3513 11.6262 12.9562C11.6519 14.0734 12.5108 14.9579 13.628 14.9579C14.7452 14.9579 15.6297 14.0734 15.6297 12.9562C15.6297 11.839 14.7452 10.9463 13.628 10.9545Z" fill="#35332F"/>
<circle cx="13.628" cy="12.9563" r="12.4563" stroke="#35332F"/>
</svg>
