<svg width="24" height="25" viewBox="0 0 24 25" fill="none" xmlns="http://www.w3.org/2000/svg">
<path d="M4 20.3735C3.45 20.3735 2.975 20.1819 2.575 19.7985C2.19167 19.3985 2 18.9235 2 18.3735V6.37353C2 5.82354 2.19167 5.35687 2.575 4.97353C2.975 4.57353 3.45 4.37354 4 4.37354H20C20.55 4.37354 21.0167 4.57353 21.4 4.97353C21.8 5.35687 22 5.82354 22 6.37353V18.3735C22 18.9235 21.8 19.3985 21.4 19.7985C21.0167 20.1819 20.55 20.3735 20 20.3735H4ZM12 13.3735L20 8.37354V6.37353L12 11.3735L4 6.37353V8.37354L12 13.3735Z" fill="#35332F"/>
</svg>
