<svg width="27" height="27" viewBox="0 0 27 27" fill="none" xmlns="http://www.w3.org/2000/svg">
<path d="M20.3207 7.907L16.0377 6.70197C15.9347 6.67421 15.8286 6.66003 15.7219 6.66126C15.5048 6.65941 15.2915 6.7143 15.1015 6.81914L6.63609 11.7101C6.33576 11.8816 6.11621 12.1659 6.02494 12.4995C5.9349 12.8294 5.98115 13.1822 6.15321 13.4782L9.31072 18.9563C9.48216 19.2548 9.76646 19.4719 10.1001 19.5582C10.435 19.6464 10.792 19.5983 11.0911 19.4238L19.5597 14.5296C19.8379 14.3662 20.0426 14.1035 20.1326 13.7939L21.2378 9.48249C21.4067 8.79548 21.0009 8.09923 20.3207 7.90681L20.3207 7.907ZM18.9929 10.8228C18.6611 11.0146 18.2461 10.9881 17.9421 10.7543C17.638 10.5206 17.5042 10.1272 17.6041 9.75714C17.7034 9.3865 18.0167 9.11269 18.3966 9.06336C18.7771 9.01402 19.1496 9.19903 19.3401 9.53143C19.5998 9.98409 19.445 10.5613 18.9929 10.8228Z" fill="#35332F"/>
<circle cx="13.628" cy="13.1313" r="12.4563" stroke="#35332F"/>
</svg>
