<svg width="27" height="26" viewBox="0 0 27 26" fill="none" xmlns="http://www.w3.org/2000/svg">
<path d="M8.39868 6.32514C8.02498 6.32514 7.7237 6.61172 7.7237 6.96757V19.1199C7.7237 19.4757 8.02446 19.7623 8.39868 19.7623H18.8573C19.231 19.7623 19.5323 19.4757 19.5323 19.1199V9.05174L16.6707 6.32557L8.39868 6.32514ZM16.1904 6.7823L19.052 9.50847H16.8644C16.4907 9.50847 16.1894 9.22189 16.1894 8.86604L16.1904 6.7823ZM9.91703 11.4374H17.3392V12.0799H9.91703V11.4374ZM9.91703 14.0078H17.3392V14.6502H9.91703V14.0078ZM9.91703 16.5781H17.3392V17.2205H9.91703V16.5781Z" fill="#35332F"/>
<circle cx="13.628" cy="13.0437" r="12.4563" stroke="#35332F"/>
</svg>
