<svg width="20" height="21" viewBox="0 0 20 21" fill="none" xmlns="http://www.w3.org/2000/svg">
<path d="M10 20.3735C8.63333 20.3735 7.34167 20.111 6.125 19.586C4.90833 19.061 3.84583 18.3444 2.9375 17.436C2.02917 16.5277 1.3125 15.4652 0.7875 14.2485C0.2625 13.0319 0 11.7402 0 10.3735C0 8.9902 0.2625 7.69437 0.7875 6.48604C1.3125 5.2777 2.02917 4.21937 2.9375 3.31104C3.84583 2.4027 4.90833 1.68604 6.125 1.16104C7.34167 0.636035 8.63333 0.373535 10 0.373535C11.3833 0.373535 12.6792 0.636035 13.8875 1.16104C15.0958 1.68604 16.1542 2.4027 17.0625 3.31104C17.9708 4.21937 18.6875 5.2777 19.2125 6.48604C19.7375 7.69437 20 8.9902 20 10.3735C20 11.7402 19.7375 13.0319 19.2125 14.2485C18.6875 15.4652 17.9708 16.5277 17.0625 17.436C16.1542 18.3444 15.0958 19.061 13.8875 19.586C12.6792 20.111 11.3833 20.3735 10 20.3735ZM10 18.3235C10.4333 17.7235 10.8083 17.0985 11.125 16.4485C11.4417 15.7985 11.7 15.1069 11.9 14.3735H8.1C8.3 15.1069 8.55833 15.7985 8.875 16.4485C9.19167 17.0985 9.56667 17.7235 10 18.3235ZM7.4 17.9235C7.1 17.3735 6.8375 16.8027 6.6125 16.211C6.3875 15.6194 6.2 15.0069 6.05 14.3735H3.1C3.58333 15.2069 4.1875 15.9319 4.9125 16.5485C5.6375 17.1652 6.46667 17.6235 7.4 17.9235ZM12.6 17.9235C13.5333 17.6235 14.3625 17.1652 15.0875 16.5485C15.8125 15.9319 16.4167 15.2069 16.9 14.3735H13.95C13.8 15.0069 13.6125 15.6194 13.3875 16.211C13.1625 16.8027 12.9 17.3735 12.6 17.9235ZM2.25 12.3735H5.65C5.6 12.0402 5.5625 11.711 5.5375 11.386C5.5125 11.061 5.5 10.7235 5.5 10.3735C5.5 10.0235 5.5125 9.68604 5.5375 9.36104C5.5625 9.03604 5.6 8.70687 5.65 8.37354H2.25C2.16667 8.70687 2.10417 9.03604 2.0625 9.36104C2.02083 9.68604 2 10.0235 2 10.3735C2 10.7235 2.02083 11.061 2.0625 11.386C2.10417 11.711 2.16667 12.0402 2.25 12.3735ZM7.65 12.3735H12.35C12.4 12.0402 12.4375 11.711 12.4625 11.386C12.4875 11.061 12.5 10.7235 12.5 10.3735C12.5 10.0235 12.4875 9.68604 12.4625 9.36104C12.4375 9.03604 12.4 8.70687 12.35 8.37354H7.65C7.6 8.70687 7.5625 9.03604 7.5375 9.36104C7.5125 9.68604 7.5 10.0235 7.5 10.3735C7.5 10.7235 7.5125 11.061 7.5375 11.386C7.5625 11.711 7.6 12.0402 7.65 12.3735ZM14.35 12.3735H17.75C17.8333 12.0402 17.8958 11.711 17.9375 11.386C17.9792 11.061 18 10.7235 18 10.3735C18 10.0235 17.9792 9.68604 17.9375 9.36104C17.8958 9.03604 17.8333 8.70687 17.75 8.37354H14.35C14.4 8.70687 14.4375 9.03604 14.4625 9.36104C14.4875 9.68604 14.5 10.0235 14.5 10.3735C14.5 10.7235 14.4875 11.061 14.4625 11.386C14.4375 11.711 14.4 12.0402 14.35 12.3735ZM13.95 6.37354H16.9C16.4167 5.5402 15.8125 4.8152 15.0875 4.19854C14.3625 3.58187 13.5333 3.12354 12.6 2.82354C12.9 3.37354 13.1625 3.94437 13.3875 4.53604C13.6125 5.1277 13.8 5.7402 13.95 6.37354ZM8.1 6.37354H11.9C11.7 5.6402 11.4417 4.94854 11.125 4.29854C10.8083 3.64854 10.4333 3.02354 10 2.42354C9.56667 3.02354 9.19167 3.64854 8.875 4.29854C8.55833 4.94854 8.3 5.6402 8.1 6.37354ZM3.1 6.37354H6.05C6.2 5.7402 6.3875 5.1277 6.6125 4.53604C6.8375 3.94437 7.1 3.37354 7.4 2.82354C6.46667 3.12354 5.6375 3.58187 4.9125 4.19854C4.1875 4.8152 3.58333 5.5402 3.1 6.37354Z" fill="#35332F"/>
</svg>
